<svg xmlns="http://www.w3.org/2000/svg" width="619" height="381">
    <path fill="#6dc405"
          d="M556.731.443c13.077-.155 26.154.01 39.241-.093 1.815.145 4.012-.361 5.425 1.135.371 1.394.36 2.86.423 4.294-.052 48.879-.031 97.758-.01 146.627-.032 1.97.061 5.088-2.713 4.984-2.888.124-2.599-2.992-2.61-5.015.052-48.89 0-97.79.032-146.689-12.324-.051-24.648.041-36.972-.051-36.395 49.89-72.583 99.935-108.926 149.857-.928 1.434-2.98 2.848-4.434 1.269-1.888-1.249-.495-3.664.546-5.026C483.437 101.339 519.986 50.819 556.731.443zM113.491 3.87c1.454 1.733-.413 3.457-1.28 4.933C77.149 56.97 42.188 105.209 7.124 153.386c-.836 1.228-1.784 2.518-1.65 4.097-.083 12.912.01 25.823-.02 38.745 15.334-.031 30.68.03 46.026-.042 1.66.02 3.362.02 4.98.496 1.146 1.331 1.166 3.653-.535 4.54-1.454.331-2.95.28-4.425.32-15.51-.071-31.031-.04-46.542-.01-1.526-.134-3.455.217-4.424-1.29-.454-1.816-.372-3.705-.402-5.552.092-12.746-.01-25.482.04-38.218-.175-1.92.692-3.643 1.826-5.109C37.505 102.587 72.92 53.75 108.386 4.943c.897-1.91 3.764-3.179 5.105-1.073zm223.533-.63c30.712 6.554 57.185 27.608 73.397 54.163 14.294 23.573 18.378 52.43 13.871 79.418-5.435 33.285-27.422 62.565-56.164 79.573-17.388 10.26-37.653 15.172-57.763 15.048-20.1.072-40.282-4.933-57.65-15.13-7.755 9.526-15.48 19.083-23.214 28.63 5.177 9.04 6.652 20.29 3.053 30.157-1.836 5.428-5.497 9.928-9.096 14.273-21.4 26.39-42.717 52.842-64.126 79.222-6.56 8.133-17.027 12.592-27.402 12.313-14.613-.02-28.474-10.538-32.506-24.563-2.29-8-2.063-16.854 1.382-24.492 2.31-5.263 6.229-9.546 9.797-13.964 1.279-1.331 2.516-3.591 4.713-2.724 1.681.65 2.021 2.745.939 4.097-3.672 5.305-8.766 9.722-11.087 15.904-4.197 10.755-1.63 24.14 6.972 32.036 9.797 10.114 26.978 11.208 38.127 2.725 3.898-2.962 6.775-6.977 9.838-10.734 20.925-25.905 41.902-51.769 62.806-77.674 7.467-9.04 8.416-22.716 2.403-32.748-.887-1.816-2.908-4.128-.918-5.944 8.426-10.507 16.893-21.003 25.463-31.386 1.578-2.456 4.3-.557 6.115.496 20.554 12.188 45.305 16.152 68.86 13.375 34.91-3.725 66.117-26.606 82.947-57.022 8.9-16.162 13.17-34.708 12.912-53.12.093-21.767-6.404-43.616-19.007-61.42-15.242-21.57-37.714-38.66-63.62-44.822-1.61-.61-3.981-.547-4.651-2.467-.66-2.105 1.536-4.221 3.609-3.22zm-79.667 13.892c-.042 1.558-1.094 2.61-2.373 3.323-24.689 15.017-44.263 39.301-51.224 67.611-4.878 20.053-4.486 41.49 1.568 61.243 4.764 15.502 13.324 29.734 24.42 41.52 1.042 1.342 2.909 2.715 1.96 4.645-.877 2.054-3.64 1.693-4.806.114-14.85-15.285-25.4-34.823-29.474-55.784-3.651-19.052-3.032-39.033 2.444-57.683 8.26-27.938 28.165-51.851 53.08-66.59 1.61-1.32 3.847-.267 4.405 1.6zm102.696 39.982c12.2 10.383 21.533 24.409 25.163 40.117 3.187 13.799 2.868 28.496-1.299 42.057-5.28 17.267-17.419 31.974-32.403 41.82-17.13 11.146-38.828 14.077-58.62 9.722-13.622-3.035-26.194-10.207-36.043-20.053-9.704-9.557-17.418-21.581-20.481-34.947-.774-3.426 4.888-4.066 5.135-.588 7.023 24.79 28.206 45.267 53.504 50.593 17.759 3.725 37.106 1.114 52.596-8.587 15.645-9.826 27.99-25.451 32.362-43.564 3.104-13.046 2.805-26.979-1.196-39.797-4.012-12.942-12.252-24.274-22.503-33.006-1.867-1.176-2.269-3.932-.134-5.057 1.475-.495 2.857.32 3.919 1.29zm-206.435 19.3c2.857-.67 3.3 2.642 3.177 4.696 0 23.665-.01 47.33 0 70.986 5.105.114 10.23-.3 15.315.206 2.206.795 1.35 3.396 1.588 5.192-.186 14.15.237 28.31-.196 42.449-.279.32-.825.96-1.093 1.28-5.167.67-10.417.124-15.614.279-.01 8.029-.01 16.058.03 24.088-.144 1.827.228 3.963-1.092 5.46-5.095.753-10.334.454-15.46.216-2.403-.196-2.63-4.344-.34-4.84 3.805-.64 7.714-.186 11.571-.268.02-8.443-.01-16.875-.02-25.317.092-1.497-.196-3.261 1.103-4.335 5.24-.65 10.54-.155 15.81-.278-.01-12.953 0-25.906-.01-38.848-5.178-.165-10.417.444-15.542-.32-.268-.185-.794-.547-1.052-.733-.536-3.364-.258-6.79-.3-10.186.011-21.663.032-43.327-.01-64.99.083-1.692-.298-4.593 2.135-4.737zm-43.603 11.085c.526 2.662.361 5.397.392 8.101-.144 19.61.145 39.24-.134 58.85.402 2.425-2.166 3.147-4.063 2.94-15.511-.072-31.032.135-46.532-.092-2.341.144-2.816-2.075-2.496-3.953 1.464-1.569 3.702-1.177 5.63-1.28 14.088.072 28.186.01 42.284.031.041-20.93-.072-41.871.041-62.802-.64-2.827 3.414-4.097 4.878-1.795zm445.19.835c.474 1.59-1.031 2.766-1.691 4.036-13.655 18.64-27.237 37.34-40.85 56.02-2.094 2.746-3.898 5.729-6.26 8.258-1.206 1.527-4.063.608-4.208-1.25-.484-1.393.764-2.518 1.372-3.632 13.53-18.505 27.01-37.041 40.52-55.557 2.557-3.292 4.6-7.049 7.683-9.897 1.289-.104 3.558.278 3.434 2.022zm62.29 64.113c1.475.805 1.042 2.621 1.197 4.015-.031 13.778.02 27.566-.021 41.345.093 1.424-.216 3.56-2.073 3.56-6.043.248-12.128.3-18.161-.02-2.681-.279-2.681-4.81.072-4.975 4.95-.403 9.921-.052 14.892-.155.052-13.592-.113-27.185.052-40.777-.475-2.209 2.01-4.355 4.042-2.993zm-63.734 43.884c2.022 1.094 1.475 3.622 1.65 5.521-.03 8.102-.03 16.194-.03 24.295 14.231.021 28.473-.041 42.705.01 1.537-.123 3.899.548 3.6 2.54.443 2.043-1.98 2.9-3.59 2.724-14.82.031-29.628.021-44.448 0-1.64.196-3.775-.609-3.476-2.642-.123-9.96-.123-19.93-.01-29.889-.206-1.95 1.846-3.271 3.6-2.56zm-321.877 14.707c-5.167 7.183-11.139 13.757-16.532 20.775-1.537 1.58-2.94 4.697-5.631 3.54-9.23-2.951-20.007-1.837-27.794 4.19-2.99 2.189-5.053 5.357-7.776 7.834-2.031.898-4.32-1.001-3.63-3.168 7.89-13.221 25.092-18.557 39.56-14.429 5.962-7.183 11.593-14.655 17.729-21.694 1.774-2.332 5.899.516 4.073 2.952z"/>
    <path fill="red"
          d="M317.533 274.068c8.859 1.506 17.934 5.645 22.895 13.468 4.95 7.648 4.95 17.4 3.156 26.05-1.785 8.463-7.436 15.677-14.696 20.218 3.31 5.718 6.785 11.353 10.003 17.133 1.104 1.403.96 3.911-1 4.448-2.64.836-3.682-2.147-4.827-3.85-3.29-5.945-7.023-11.642-10.168-17.659-1.589-2.446 1.495-3.777 3.135-4.81 6.9-3.787 11.602-10.95 12.778-18.69 1.237-7.503.794-16.08-4.445-22.066-5.91-6.811-15.243-9.123-23.885-9.815-7.972-.825-15.903 1.001-23.854.702-2.66-.836-1.836-5.377 1.031-5.006 9.921-.887 20.008-2.033 29.877-.123zm76.254-.909c8.93.238 18.213 2.157 25.525 7.566 5.816 4.21 9.611 10.97 10.333 18.102.908 8.928-.423 18.526-5.775 25.957-2.568 3.726-6.116 6.615-9.797 9.175 7.868 13.303 15.768 26.586 23.616 39.9 1.217 1.507 1.753 4.8-.897 4.995-5.383.423-10.829.248-16.233.103-2.774.124-3.588-4.22-.814-4.985 3.867-.474 7.776-.154 11.664-.206a5432.006 5432.006 0 00-20.255-34.244c-1.176-2.58-4.012-5.037-3.259-8.05 3.042-2.446 6.807-3.984 9.395-7.019 6.59-6.925 8.26-17.173 6.9-26.348-1.052-6.781-5.827-12.623-11.974-15.502-5.94-3.22-12.778-3.571-19.295-4.541-2.713-.496-1.95-5.315.866-4.903zm115.515 5.274c8.055 4.665 13.758 12.623 16.893 21.261 4.228 11.59 4.96 24.181 3.93 36.39-1.042 11.53-4.466 23.388-12.376 32.13-6.6 7.41-16.264 11.6-26.05 12.488-11.283 1.104-23.473-.61-32.672-7.679-8.931-6.76-14.078-17.411-16.253-28.196-1.702-8.618-2.331-17.556-1.28-26.287.516-2.735 5.446-2.033 4.92.898-.412 12.467.165 25.471 5.786 36.865 4.022 8.319 11.364 15.151 20.357 17.649 8.756 2.405 18.244 2.425 26.948-.207 8.694-2.61 15.861-9.185 19.832-17.277 5.29-10.713 6.312-23.005 5.785-34.78-.732-12.179-3.733-25.152-12.581-34.09-9.653-9.485-24.432-11.456-37.22-8.72-4.063.742-7.61 2.94-11.458 4.303-2.485.516-3.805-3.344-1.711-4.593 3.97-2.786 8.745-4.2 13.448-5.191 11.334-1.982 23.678-.991 33.702 5.036zm62.95-5.315c2.63.114 2.775 4.85.052 4.964-7.858.61-15.717 1.59-23.585 1.961-2.723.506-3.693-4.097-1.135-4.788 3.486-.95 7.157-.836 10.746-1.26 4.63-.268 9.261-1.29 13.923-.877zm-313.513 1.239c1.939-.052 5.331-.083 4.991 2.776.083 6.1.423 12.271-.206 18.35a70.88 70.88 0 00-.763 1.105c-7.199.608-14.459.257-21.678.216-2.888.434-3.527-4.51-.815-4.902 6.044-.764 12.18-.124 18.264-.32 0-3.86-.01-7.72.021-11.57-1.877-.536-5.744.104-5.558-2.786-.454-3.293 3.599-2.776 5.744-2.87zm344.267 9.32c7.88 7.967 8.457 20.31 5.992 30.662-1.97 8.474-7.88 15.554-15.253 19.95 6.786 11.064 13.54 22.149 20.337 33.212 1.722 2.921 3.806 5.677 5.012 8.876-.154 3.447-4.249 2.55-6.559 2.715-6.6-.29-13.283.454-19.832-.382-4.96-6.957-8.652-14.77-13.21-22.015-1.063-2.25-3.466-4.572-2.125-7.193 1.733-1.651 3.98-.588 4.899 1.342 4.548 7.585 8.869 15.326 13.396 22.932 5.322-.02 10.643-.01 15.965-.01a13077.625 13077.625 0 00-19.884-32.51c-1.63-2.725-3.527-5.316-4.64-8.298.463-2.312 3.145-2.838 4.805-4.046 8.818-4.758 13.263-15.058 13.046-24.78.392-6.987-2.197-14.284-7.9-18.588-1.887-1.259-4.259-3.829-1.742-5.769 3.135-1.27 5.61 2.043 7.693 3.901zm-238.828 7.998c.165 27.298-.01 54.607.083 81.905 2 .423 4.795-.413 6.105 1.662.423 1.507 0 2.694-1.268 3.571a28.935 28.935 0 01-8.23.072c-2.372-.165-1.753-3.003-1.939-4.592.114-27.877-.134-55.764.124-83.63.134-3.581 6.023-2.466 5.125 1.012zm135.884 3.189c6.817 6.254 8.807 15.842 9.715 24.677.33 5.883.64 11.879-.31 17.72-.299 2.705-4.909 2.53-4.94-.175.351-10.135.795-20.62-2.846-30.291-1.856-4.903-5.445-9.63-10.664-11.116-5.816-1.517-12.736-.598-16.954 4.005-5.755 6.12-6.89 14.975-7.312 23.005-.237 9.567.206 19.764 5.167 28.227 4.053 6.863 13.355 9.557 20.554 6.316 2.155-.743 4.166-2.673 6.59-1.868.949 1.239 1.536 3.416-.093 4.386-8.343 6.193-21.369 5.43-28.577-2.239-6.219-6.523-8.044-15.873-8.787-24.543-.454-9.64-.382-19.682 3.3-28.753 2.743-6.792 8.508-12.747 15.934-14.047 6.641-1.177 14.2-.196 19.223 4.696zm44.274-3.21c.299 27.36.03 54.741.123 82.112 4.682-.01 9.354-.01 14.047 0 .154-8.081-.29-16.183.175-24.243-.02-1.91 2.475-2.353 3.898-1.703 1.753 1.331 1 3.839 1.248 5.738-.196 7.854.248 15.729-.206 23.562-.052 1.806-2.28 1.91-3.6 1.92-6.198-.02-12.416.196-18.604-.114-2.465-.02-2.176-2.94-2.259-4.664.124-27.547-.175-55.113.145-82.65-.165-3.157 5.29-3.116 5.033.042zm-266.116-.753c.732 1.548.64 3.292.711 4.964-.072 25.967-.02 51.934-.04 77.901 4.681-.01 9.363-.01 14.035.01.175-7.72-.268-15.45.196-23.15.423-2.879 5.559-2.105 5.002.95.196 8.236.237 16.514-.02 24.75.226 1.857-1.444 2.838-3.095 2.683-6.466.041-12.953.237-19.419-.103-2.238-.207-1.96-2.931-2-4.541.103-27.165-.083-54.34.092-81.493-.278-2.518 2.805-3.375 4.538-1.971zm26.927-.351c7.518-1.022 16.17 3.055 18.347 10.744 1.763 7.028.526 16.007-6.033 20.218-6.002 4.118-13.613 3.726-20.554 3.612-1.372-.165-3.393.186-3.754-1.61-.443-5.8-.247-11.662-.113-17.483-.062-2.487 4.094-3.2 4.836-.784.784 4.83.196 9.763.372 14.634 5.115-.072 10.622.403 15.263-2.198 5.641-2.931 6.476-10.692 4.403-16.09-2.01-4.562-7.28-5.676-11.725-6.12-2.702.072-3.26-3.726-1.042-4.923zm86.742-.062c2.476-.175 3.105 3.437 1.28 4.717-3.115.825-6.395.67-9.581.928-.01 7.906-.021 15.822 0 23.728 6.053-.01 13.149.526 17.83-4.128 3.218-3.324 2.372-8.298 3.177-12.468 1.155-1.651 4.404-1.29 4.682.867.918 6.44-.938 14.17-6.91 17.659-6.528 4.066-14.572 3.498-21.925 3.21-1.764.134-2.238-1.961-2.124-3.293-.083-8.979-.031-17.958-.021-26.927.093-1.187-.031-3.323 1.537-3.53a65.384 65.384 0 0112.055-.763zm184.561.248c2.073.165 5.25 1.372 4.032 4.045-.185 1.992-2.557 1.466-3.877 1.394-4.26-.599-8.57-.413-12.83-.01.042 7.895.01 15.8.021 23.696 6.105-.031 13.376.588 17.996-4.242 3.568-4.046 2.888-9.836 1.888-14.707-1.269-2.88 3.588-4.242 4.63-1.6 3.331 7.679 1.526 18.536-6.25 22.85-6.352 3.685-14.036 3.055-21.08 2.87-2.928.051-2.443-3.458-2.505-5.419.206-8.958-.29-17.948.237-26.875.247-.34.742-1.001.98-1.342 5.486-.98 11.2-1.27 16.758-.66zm-347.578 24.057c8.962.031 17.924-.01 26.886.01 1.805.021 4.62.135 4.311 2.694.289 5.842.258 11.725.01 17.576.114 1.817-1.773 2.663-3.32 2.426-10.84.072-21.689-.031-32.527.02-.042 3.52.237 7.06-.196 10.559-.238 1.826-3.022 2.528-4.177 1.176-1.207-.846-.691-2.58-.918-3.808.041-3.912-.3-7.875.3-11.756.824-1.723 2.928-1.32 4.485-1.475 10.396-.01 20.801.03 31.197.01 0-4.046 0-8.081.01-12.117-9.735-.144-19.491.207-29.216-.144-1.63.196-2.176-2.054-1.94-3.282.681-2.219 3.311-1.724 5.095-1.889zm-27.71 16.43c1.784-.753 3.99.63 3.66 2.653.207 13.294.01 26.587.083 39.89 18.089-.01 36.178 0 54.277-.01v-12.117c-7.724-.03-15.449.041-23.163 0-1.464-.03-3.671 0-4.001-1.868-.64-1.94 1.062-3.746 3.032-3.364 8.92-.093 17.872-.166 26.793.03 1.918-.257 2.784 1.703 2.588 3.313-.02 5.852.32 11.756-.206 17.597-.31 2.034-2.918 1.538-4.372 1.724-18.914-.062-37.85.041-56.763-.052-1.702.227-3.579-.65-3.393-2.631-.227-13.438.01-26.876-.103-40.313.186-1.652-.35-4.067 1.568-4.851zm105.976 3.892c1.03 1.073 1.784 2.384 2.557 3.653 6.703 11.704 13.5 23.336 20.255 34.998 5.249 0 10.488-.052 15.737.062-1.144-2.167-2.052-6.543 1.774-6.316 2.908 1.29 3.97 4.881 5.497 7.503 1.29 1.775-.279 4.324-2.444 3.984-7.209.124-14.438.093-21.647.01-1.96.33-2.93-1.558-3.775-2.941-6.868-11.838-13.633-23.738-20.636-35.493-1.846-.547-4.517-.837-4.403-3.375.783-3.128 4.66-2.622 7.085-2.085zm83.668-.217c2.445-.237 3.197 2.456 4.353 4.066 2.66 4.975 5.909 9.65 8.302 14.77 1.577 2.425-2.65 4.964-4.105 2.704-3.692-5.171-6.415-10.95-9.766-16.338-2.011-.01-4.012-.01-6.013 0-.124 9.33.237 18.67-.144 28 .165 3.137-5.157 3.261-5.054.124-.257-9.31.01-18.63-.123-27.939.237-1.713-.506-4.107 1.33-5.119 3.692-.66 7.487-.454 11.22-.268z"/>
</svg>